<svg xmlns="http://www.w3.org/2000/svg" xmlns:xlink="http://www.w3.org/1999/xlink" version="1.1" x="0px" y="0px" viewBox="0 0 64 80" style="enable-background:new 0 0 64 64;" xml:space="preserve"><g><path d="M25,47H4c-0.551,0-1,0.448-1,1v1h22V47z"/><path d="M5,23v22h20V25h-2v-2H5z M21,35H7V25h14V35z"/><path d="M26.995,51H26c-0.551,0-1,0.448-1,1v1h7.051C32.021,52.67,32,52.338,32,52s0.021-0.67,0.051-1H26.995z"/><rect x="31" y="33" width="3" height="2"/><rect x="15" y="31" width="4" height="2"/><rect x="15" y="27" width="4" height="2"/><rect x="31" y="29" width="3" height="2"/><rect x="9" y="27" width="4" height="2"/><rect x="9" y="31" width="4" height="2"/><polygon points="23,19.553 34.794,9 13.515,9 4.943,21 23,21  "/><path d="M43,43c-4.962,0-9,4.037-9,9s4.038,9,9,9s9-4.037,9-9S47.962,43,43,43z M43,51c1.654,0,3,1.346,3,3   c0,1.302-0.839,2.402-2,2.816V59h-2v-2.184c-1.161-0.414-2-1.514-2-2.816h2c0,0.552,0.449,1,1,1s1-0.448,1-1s-0.449-1-1-1   c-1.654,0-3-1.346-3-3c0-1.302,0.839-2.402,2-2.816V45h2v2.184c1.161,0.414,2,1.514,2,2.816h-2c0-0.552-0.449-1-1-1s-1,0.448-1,1   S42.449,51,43,51z"/><path d="M45,41.191c3.568,0.659,6.531,3.042,8,6.253V35h-8V41.191z"/><path d="M60,51h-6.051C53.979,51.33,54,51.662,54,52s-0.021,0.67-0.051,1H61v-1C61,51.448,60.551,51,60,51z"/><rect x="36" y="33" width="3" height="2"/><rect x="25" y="21" width="36" height="2"/><rect x="36" y="29" width="3" height="2"/><polygon points="59.383,19 43,4.342 26.617,19  "/><path d="M43,41v-8h12v16h4V25H27v24h5.426C33.737,44.39,37.976,41,43,41z M29,37V27h12v10H29z"/></g><text x="0" y="79" fill="#000000" font-size="5px" font-weight="bold" font-family="'Helvetica Neue', Helvetica, Arial-Unicode, Arial, Sans-serif">Created by Eucalyp</text><text x="0" y="84" fill="#000000" font-size="5px" font-weight="bold" font-family="'Helvetica Neue', Helvetica, Arial-Unicode, Arial, Sans-serif">from the Noun Project</text></svg>