<svg xmlns="http://www.w3.org/2000/svg" xmlns:xlink="http://www.w3.org/1999/xlink" version="1.1" x="0px" y="0px" viewBox="0 0 64 80" style="enable-background:new 0 0 64 64;" xml:space="preserve"><path d="M61,24.9L38.7,5.1C35,1.8,29,1.8,25.3,5.1L3,24.9c-1.2,1.1-1.9,2.5-1.9,4c0,1.5,0.7,3,1.9,4c1.1,1,2.6,1.6,4.2,1.6  c1.1,0,2.1-0.3,3-0.7c0,0.1,0,0.1,0,0.2v23.2H8.7c-0.8,0-1.4,0.9-1.4,2.1c0,1.1,0.6,2.1,1.4,2.1h46.6c0.8,0,1.4-0.9,1.4-2.1  c0-1.1-0.6-2.1-1.4-2.1h-1.5V34.1c0-0.1,0-0.1,0-0.2c0.9,0.5,2,0.7,3,0.7c1.5,0,3-0.5,4.2-1.6c1.2-1.1,1.9-2.5,1.9-4  C62.8,27.5,62.2,26,61,24.9z M59,29.7c-0.1,0.2-0.3,0.4-0.5,0.6c-1,0.9-2.6,0.9-3.6,0L34.6,12.1c-1.5-1.3-3.7-1.3-5.1,0L9,30.3  C8.6,30.7,7.9,31,7.2,31s-1.3-0.2-1.8-0.7C5,30,4.8,29.5,4.8,29c0-0.5,0.2-1,0.6-1.3L27.7,7.8c2.3-2.1,6.2-2.1,8.5,0l22.3,19.9  c0.4,0.4,0.6,0.8,0.6,1.3C59.2,29.2,59.1,29.5,59,29.7z M24.9,57.3H14.7V44c0-2.5,2.3-4.5,5.1-4.5c1.4,0,2.7,0.5,3.6,1.3  c0.9,0.8,1.5,2,1.5,3.2V57.3z M43.1,46.9c0,0.2-0.2,0.5-0.5,0.5h-4c-0.3,0-0.5-0.2-0.5-0.5v-3.6c0-0.3,0.2-0.5,0.5-0.5h4  c0.3,0,0.5,0.2,0.5,0.5V46.9z M43.1,41.9c0,0.2-0.2,0.5-0.5,0.5h-4c-0.3,0-0.5-0.2-0.5-0.5v-3.6c0-0.2,0.2-0.5,0.5-0.5h4  c0.3,0,0.5,0.2,0.5,0.5V41.9z M48.9,46.9c0,0.2-0.2,0.5-0.5,0.5h-4c-0.3,0-0.5-0.2-0.5-0.5v-3.6c0-0.3,0.2-0.5,0.5-0.5h4  c0.3,0,0.5,0.2,0.5,0.5V46.9z M48.9,41.9c0,0.2-0.2,0.5-0.5,0.5h-4c-0.3,0-0.5-0.2-0.5-0.5v-3.6c0-0.2,0.2-0.5,0.5-0.5h4  c0.3,0,0.5,0.2,0.5,0.5V41.9z"/><text x="0" y="79" fill="#000000" font-size="5px" font-weight="bold" font-family="'Helvetica Neue', Helvetica, Arial-Unicode, Arial, Sans-serif">Created by Md Saiful Alam Saif</text><text x="0" y="84" fill="#000000" font-size="5px" font-weight="bold" font-family="'Helvetica Neue', Helvetica, Arial-Unicode, Arial, Sans-serif">from the Noun Project</text></svg>