<svg xmlns="http://www.w3.org/2000/svg" xmlns:xlink="http://www.w3.org/1999/xlink" version="1.1" x="0px" y="0px" viewBox="0 0 100 125" enable-background="new 0 0 100 100" xml:space="preserve"><path fill-rule="evenodd" clip-rule="evenodd" d="M88.2827148,41.2451172c1.2978516-0.1738281,2.3671875,0.125,3.2089844,0.8945313  c0.7714844,0.7714844,1.1044922,1.8066406,0.9990234,3.1035156c-0.140625,1.4707031-0.7011719,2.7148438-1.6826172,3.7324219  L69.3999023,71.6884766l-30.4550781,0.1054688l-3.9453125,4.0214844l0.4208984,0.4472656v0.0527344l2.7880859,2.890625  l-10.0996094,9.5683594l-4.5751953-4.8359375H23.480957L7.4907227,67.1669922l10.0458984-9.5683594v0.0527344l1.8408203,1.8652344  c1.4824219-1.7207031,2.9365234-3.1835938,4.3662109-4.390625l2.1044922-1.6289063  c1.8583984-1.2617188,3.6640625-2.1738281,5.4169922-2.734375c3.6474609-1.1210938,7.3115234-0.8945313,10.9931641,0.6835938  l0.7890625,0.4199219H64.980957c0.8779297,0,1.7011719,0.1757813,2.4726563,0.5273438l0.1572266,0.0507813  c0.3867188,0.1757813,0.7714844,0.4746094,1.1582031,0.8945313c0.5957031,0.4902344,1.0517578,1.0878906,1.3671875,1.7871094  c0.140625,0.3867188,0.2109375,0.8769531,0.2109375,1.4726563c0,1.2617188-0.5263672,2.3496094-1.578125,3.2597656  c-0.9824219,0.9824219-2.2451172,1.4726563-3.7880859,1.4726563l-13.0439453-0.0527344v3.3125l13.0439453,0.0507813  c2.3496094,0,4.3837891-0.7519531,6.1025391-2.2597656c1.7177734-1.6113281,2.5761719-3.5410156,2.5761719-5.7832031  c0-0.5957031-0.0517578-1.15625-0.1572266-1.6835938l11.1513672-11.6699219  c0.4208984-0.4921875,0.9638672-0.9296875,1.6298828-1.3144531C86.9858398,41.5791016,87.6518555,41.3525391,88.2827148,41.2451172z   M18.4838867,26.7880859H57.512207v21.765625H43.8891602l-0.2109375-0.1035156  c-4.5234375-1.9980469-9.0117188-2.2792969-13.4648438-0.8417969c-1.8935547,0.5957031-3.8564453,1.5605469-5.890625,2.8925781  h-5.8388672V26.7880859z M68.3999023,11.2255859l-9.9931641,12.25h-38.1875l9.6787109-12.25H68.3999023z M72.2924805,11.7509766  l11.5722656,10.7773438v17.0351563c-0.6308594,0.4570313-1.1748047,0.8945313-1.6308594,1.3144531l-4.3125,4.4179688  l0.0527344-10.4628906h-9.5205078l-0.1054688,13.7734375l-7.5214844-0.0527344V25.6845703L72.2924805,11.7509766z   M34.7895508,33.4130859v8.359375h8.4160156v-8.359375H34.7895508z"/><text x="0" y="115" fill="#000000" font-size="5px" font-weight="bold" font-family="'Helvetica Neue', Helvetica, Arial-Unicode, Arial, Sans-serif">Created by Saeful Muslim</text><text x="0" y="120" fill="#000000" font-size="5px" font-weight="bold" font-family="'Helvetica Neue', Helvetica, Arial-Unicode, Arial, Sans-serif">from the Noun Project</text></svg>